<?xml version="1.0" encoding="UTF-8"?>
<svg viewBox="0 0 166.37231 168.47308" xmlns="http://www.w3.org/2000/svg">
 <defs>
  <linearGradient id="a" x1="379.92" x2="387.75" y1="-298.54" y2="-148.13" gradientUnits="userSpaceOnUse">
   <stop stop-color="#0146a8" offset="0"/>
   <stop stop-color="#0146a8" stop-opacity="0" offset="1"/>
  </linearGradient>
  <linearGradient id="b" x1="381.89" x2="387.75" y1="-310.05" y2="-147.97" gradientTransform="matrix(.93571 0 0 .97143 -395.59 1094.3)" gradientUnits="userSpaceOnUse">
   <stop stop-color="#edf4fd" stop-opacity=".52846" offset="0"/>
   <stop stop-color="#175bb3" stop-opacity="0" offset="1"/>
  </linearGradient>
 </defs>
 <g transform="matrix(.75853 0 0 .75853 108.04 -591.16)">
  <path transform="matrix(1 0 0 1.0126 -420.52 1101.5)" d="m497.42-208.45c0 60.568-49.1 109.67-109.67 109.67s-109.67-49.1-109.67-109.67 49.1-109.67 109.67-109.67 109.67 49.1 109.67 109.67z" fill="#103683"/>
  <path transform="matrix(.93571 0 0 .97143 -395.59 1094.3)" d="m497.42-208.45c0 60.568-49.1 109.67-109.67 109.67s-109.67-49.1-109.67-109.67 49.1-109.67 109.67-109.67 109.67 49.1 109.67 109.67z" fill="url(#a)"/>
  <path d="m-53.309 815.71c-17.197 0-31.123 15.242-31.123 34.045 0 10.729 4.548 20.288 11.641 26.529-15.325 10.307-27.192 32.416-31.831 59.822h55.192c3.8376-20.606 12.915-37.175 24.568-45.012-4.0977-3.6048-7.1198-8.6329-8.4165-14.392-0.17896-0.12448-0.34447-0.26849-0.52439-0.38972l0.39329-0.36188c-0.35774-1.8145-0.57683-3.6911-0.57683-5.6231 0-9.6709 4.699-18.13 11.746-22.798-1.0505-17.764-14.558-31.818-31.07-31.818z" fill="#eee"/>
  <path d="m2.2073 849.27c-13.459 0-24.357 11.929-24.357 26.644 0 8.3971 3.5594 15.878 9.1109 20.762-11.993 8.0666-21.281 25.37-24.911 46.818h80.316c-3.6284-21.433-12.909-38.722-24.891-46.796 5.5572-4.8836 9.1109-12.382 9.1109-20.784 0-14.716-10.919-26.644-24.378-26.644z" fill="#eee"/>
  <path d="m-32.771 785.23c-56.674 0-102.62 47.725-102.62 106.56 0 3.7524 0.1979 7.4415 0.5625 11.094 50.067 18.726 126.58 32.369 204.69-10.594 7.4e-4 -0.16695 0-0.33287 0-0.5 0-58.837-45.951-106.56-102.62-106.56z" fill="url(#b)"/>
 </g>
</svg>
